PathFileType	4	(x/y/z)	S08_P20_T19
DataRate	CameraRate	NumFrames	NumMarkers	Units	OrigDataRate	OrigDataStartFrame	OrigNumFrames
240	240	5	51	mm	240	99	394
Frame#	Time	Sternum			R.Acromium			L.Acromium			Top.Head			R.ASIS			L.ASIS			R.PSIS			L.PSIS			R.Great.Tro			L.Great.Tro			R.Iliac.Crest			L.Iliac.Crest			V.Sacral			R.Thigh.Upper.Post			R.Thigh.Lower.Ant			R.Thigh.Lower.Post			R.Thigh.Upper.Ant			R.Knee.Lat			R.Knee.Med			R.Shank.Upper.Post			R.Shank.Lower.Ant			R.Shank.Lower.Post			R.Shank.Upper.Ant			R.Ankle.Lat			R.Ankle.Med			R.Heel.Upper			R.Heel.Med			R.Heel.Lat			R.Toe.Lat			R.Toe.Med			R.Toe.Tip			L.Thigh.Upper.Post			L.Thigh.Lower.Ant			L.Thigh.Lower.Post			L.Thigh.Upper.Ant			L.Knee.Lat			L.Knee.Med			L.Shank.Upper.Post			L.Shank.Lower.Ant			L.Shank.Lower.Post			L.Shank.Upper.Ant			L.Ankle.Lat			L.Ankle.Med			L.Heel.Upper			L.Heel.Med			L.Heel.Lat			L.Toe.Lat			L.Toe.Med			L.Toe.Tip			Cervical.Spine			Back			
		X1	Y1	Z1	X2	Y2	Z2	X3	Y3	Z3	X4	Y4	Z4	X5	Y5	Z5	X6	Y6	Z6	X7	Y7	Z7	X8	Y8	Z8	X9	Y9	Z9	X10	Y10	Z10	X11	Y11	Z11	X12	Y12	Z12	X13	Y13	Z13	X14	Y14	Z14	X15	Y15	Z15	X16	Y16	Z16	X17	Y17	Z17	X18	Y18	Z18	X19	Y19	Z19	X20	Y20	Z20	X21	Y21	Z21	X22	Y22	Z22	X23	Y23	Z23	X24	Y24	Z24	X25	Y25	Z25	X26	Y26	Z26	X27	Y27	Z27	X28	Y28	Z28	X29	Y29	Z29	X30	Y30	Z30	X31	Y31	Z31	X32	Y32	Z32	X33	Y33	Z33	X34	Y34	Z34	X35	Y35	Z35	X36	Y36	Z36	X37	Y37	Z37	X38	Y38	Z38	X39	Y39	Z39	X40	Y40	Z40	X41	Y41	Z41	X42	Y42	Z42	X43	Y43	Z43	X44	Y44	Z44	X45	Y45	Z45	X46	Y46	Z46	X47	Y47	Z47	X48	Y48	Z48	X49	Y49	Z49	X50	Y50	Z50	X51	Y51	Z51	

99	0.40833	-806.41	1223.7	296.52	-918.37	1462	473.22	-930.01	1494.4	139.32	-906.16	1782.3	331.54	-839.21	1019.2	407.23	-845.01	1014.1	176.23	-1043.9	1037	341.98	-1041.8	1041.1	248.93	-887.84	910.41	484.82	-950.88	911.55	116.32	-932.3	1083.6	458.17	-939.93	1095.5	151.41	-1059.6	999.05	296.52	-831.45	711.8	471.34	-722.24	651.76	433.06	-789.61	632.41	449.6	-757.54	738.33	453.83	-716.08	554.4	428.82	-750.15	543.2	305.38	-734.46	363.09	441.05	-661.3	315.25	416.25	-717.71	287.58	433.94	-678.17	392	426.96	-679.2	120.87	398.28	-651.84	144.45	320.82	-715.86	73.152	349.02	-694.2	51.987	321.09	-703.28	48.789	382.32	NaN	NaN	NaN	-516.84	108.52	316.52	-461.76	140.87	364.86	-1012.4	717.83	138.15	-953.22	608.47	166.17	-1013.2	627.28	156.9	-942.38	699	134.4	-1026.5	524.36	179.75	-1012.2	523.5	306.02	-1124.8	363.09	185.61	-1083.8	260.66	208.98	-1149.4	290.89	207.59	-1071.2	333.03	191.01	-1164.3	115.46	229.28	-1139.2	116.99	313.47	-1221.5	87.189	279.25	-1211.1	52.634	309.43	-1217.5	61.253	246.01	-1044.2	38.369	209.09	-1023	41.017	323.57	-958.21	51.656	274.1	-990.2	1522.3	299.66	-1044.5	1241.7	305.33
100	0.4125	-800.73	1222.7	296.69	-912.91	1461	473.37	-924.39	1493.4	139.46	-900.7	1781.4	331.72	-833.33	1018.2	407.38	-839.39	1013.1	176.36	-1038	1036	342.35	-1036	1040.2	249.34	-882.03	909.38	485	-945.59	910.9	116.41	-926.39	1082.6	458.42	-934.22	1094.7	151.66	-1053.8	998.14	296.84	-826.39	710.51	471.55	-717.49	650.22	432.93	-784.86	631.02	449.65	-752.51	736.82	454	-711.27	553.02	428.51	-745.86	541.72	305.1	-727.36	361.53	440.63	-653.61	314.65	415.54	-709.66	286.22	433.35	-671.45	391.19	426.42	-668.66	119.83	397.28	-641.9	143.97	319.73	-704.77	71.553	348.07	-682.78	50.659	320.08	-691.64	47.307	381.34	NaN	NaN	NaN	-506.28	110.08	314.97	-451.55	143.31	363.13	-1008	717.64	138.13	-950.3	607.45	166.74	-1009.1	627.04	156.79	-938.02	698.47	134.25	-1023	524.14	179.66	-1008.5	523.07	305.9	-1122.5	363.59	185.49	-1082.2	260.81	208.76	-1147.9	291.44	207.7	-1069	333.1	190.83	-1164	115.96	229.19	-1138.7	117.58	313.28	-1221.2	88.002	278.99	-1211	53.519	309.34	-1217.4	61.996	245.92	-1044.1	38.241	209.08	-1022.9	41.098	323.51	-958.06	51.412	274.07	-984.71	1521.3	299.7	-1038.8	1240.6	305.46
101	0.41667	-795.03	1221.8	296.89	-907.45	1460	473.54	-918.77	1492.5	139.61	-895.23	1780.4	331.91	-827.42	1017.2	407.54	-833.75	1012.1	176.51	-1032.1	1035.1	342.72	-1030.1	1039.4	249.78	-876.19	908.35	485.18	-940.25	910.24	116.5	-920.47	1081.6	458.68	-928.48	1093.8	151.91	-1048	997.23	297.17	-821.25	709.23	471.72	-712.67	648.72	432.79	-780.06	629.67	449.64	-747.41	735.35	454.17	-706.43	551.65	428.17	-741.48	540.29	304.8	-720.48	360	440.16	-646.22	313.99	414.81	-701.93	284.88	432.71	-664.93	390.33	425.85	-658.68	118.83	396.24	-632.49	143.47	318.62	-694.27	70.042	347.09	-671.99	49.387	319.04	-680.64	45.914	380.34	NaN	NaN	NaN	-496.31	111.45	313.45	-441.92	145.5	361.44	-1003.4	717.4	138.13	-947.11	606.46	167.27	-1004.9	626.75	156.7	-933.54	697.92	134.14	-1019.3	523.87	179.59	-1004.5	522.6	305.79	-1120	364.09	185.38	-1080.5	260.96	208.55	-1146.2	292.02	207.76	-1066.7	333.16	190.66	-1163.7	116.5	229.11	-1138.2	118.22	313.08	-1220.9	88.885	278.72	-1210.8	54.475	309.24	-1217.3	62.807	245.82	-1044.1	38.114	209.08	-1022.8	41.182	323.46	-957.9	51.155	274.04	-979.22	1520.3	299.77	-1033	1239.5	305.6
102	0.42083	-789.31	1220.8	297.12	-901.99	1459	473.73	-913.15	1491.5	139.78	-889.77	1779.5	332.11	-821.48	1016.2	407.7	-828.08	1011.1	176.66	-1026.2	1034.1	343.11	-1024.3	1038.5	250.23	-870.31	907.32	485.35	-934.87	909.57	116.61	-914.53	1080.6	458.95	-922.72	1092.9	152.18	-1042.1	996.32	297.5	-816.03	707.98	471.83	-707.77	647.26	432.64	-775.18	628.35	449.56	-742.25	733.91	454.33	-701.55	550.28	427.81	-737.03	538.92	304.47	-713.83	358.5	439.65	-639.12	313.27	414.07	-694.53	283.55	432.04	-658.59	389.43	425.26	-649.28	117.84	395.18	-623.62	142.95	317.49	-684.37	68.609	346.06	-661.84	48.16	317.98	-670.32	44.602	379.31	NaN	NaN	NaN	-486.93	112.6	311.94	-432.88	147.39	359.79	-998.67	717.1	138.14	-943.6	605.52	167.71	-1000.5	626.4	156.62	-928.93	697.35	134.05	-1015.4	523.57	179.55	-1000.4	522.11	305.69	-1117.4	364.6	185.29	-1078.6	261.12	208.35	-1144.3	292.65	207.79	-1064.2	333.22	190.49	-1163.4	117.1	229.02	-1137.6	118.9	312.87	-1220.5	89.848	278.45	-1210.6	55.509	309.13	-1217.1	63.694	245.71	-1044.1	37.99	209.08	-1022.7	41.269	323.42	-957.73	50.884	274.01	-973.73	1519.3	299.85	-1027.3	1238.4	305.76
103	0.425	-783.57	1219.9	297.37	-896.54	1458.1	473.93	-907.53	1490.6	139.96	-884.3	1778.6	332.32	-815.5	1015.1	407.86	-822.38	1010.2	176.82	-1020.2	1033.2	343.5	-1018.4	1037.7	250.7	-864.4	906.31	485.53	-929.44	908.9	116.72	-908.58	1079.5	459.22	-916.92	1092.1	152.45	-1036.2	995.4	297.83	-810.76	706.75	471.88	-702.79	645.84	432.5	-770.24	627.06	449.42	-737.02	732.49	454.49	-696.65	548.93	427.43	-732.48	537.6	304.11	-707.41	357.03	439.09	-632.32	312.49	413.3	-687.46	282.24	431.32	-652.44	388.46	424.64	-640.45	116.85	394.09	-615.28	142.38	316.36	-675.1	67.251	345.01	-652.37	46.969	316.91	-660.67	43.363	378.26	NaN	NaN	NaN	-478.15	113.51	310.47	-424.41	148.97	358.17	-993.85	716.74	138.19	-939.73	604.65	168.04	-995.89	626.01	156.55	-924.2	696.75	134.01	-1011.3	523.23	179.53	-996.16	521.58	305.61	-1114.7	365.11	185.22	-1076.7	261.29	208.17	-1142.3	293.33	207.79	-1061.6	333.27	190.33	-1163	117.76	228.92	-1136.9	119.62	312.65	-1220.2	90.903	278.16	-1210.4	56.629	309.02	-1216.9	64.666	245.6	-1044	37.87	209.09	-1022.5	41.36	323.38	-957.55	50.599	273.99	-968.22	1518.3	299.96	-1021.5	1237.3	305.93
